<?xml version="1.0" encoding="utf-8"?>
<!-- Generator: Adobe Illustrator 21.1.0, SVG Export Plug-In . SVG Version: 6.00 Build 0)  -->
<svg version="1.1" id="logo-footer" xmlns="http://www.w3.org/2000/svg" xmlns:xlink="http://www.w3.org/1999/xlink" x="0px"
	 y="0px" viewBox="0 0 200 122.7" enable-background="new 0 0 200 122.7" xml:space="preserve">
<path id="logo-footer-rotunda-path" fill-rule="evenodd" clip-rule="evenodd" fill="#E57200" d="M111,49.9h4.9V26.6H111V49.9z
	 M84.6,49.9h4.7V26.6h-4.7V49.9z M91,49.9h5V26.6h-5V49.9z M97.7,49.9h5V26.6h-5V49.9z M104.3,49.9h5V26.6h-5V49.9z M100.6,16.4
	l-14,8.6h27.2L100.6,16.4z M97.6,16.3H71.8V25h11.7L97.6,16.3z M116.8,25h11.7v-8.7h-25.1L116.8,25z M100.2,0
	C89.5,0,80.3,5.9,75.4,14.7H125C120.1,5.9,110.8,0,100.2,0z M74.5,42.5l1.4,0l0.4-1.3l0.4,1.3h1.4L77,43.3l0.4,1.3l-1.1-0.8
	l-1.1,0.8l0.4-1.3L74.5,42.5z M73.2,35.9l0.4-1.3l0.4,1.3h1.4l-1.1,0.8l0.4,1.3l-1.1-0.8L72.5,38l0.4-1.3l-1.1-0.8H73.2z M83,26.6
	H71.8l0,2.1h0.6l0.3-0.7l0.2-0.6l0.4,1.3h1.4l-1.1,0.8l0.4,1.3l-1.1-0.8l-1,0.8l0,5.1l0,14h7.4l0.4-1.3l-1.1-0.8h1.4l0.4-1.3
	l0.4,1.3h1.4l-1.1,0.8l0.4,1.3H83V26.6z M80.4,49.1l-1.1,0.8h2.2L80.4,49.1z M71.9,30.3l0.2-0.7l-0.3-0.2v1.4L71.9,30.3z M71.8,57.8
	H83v-6.2H71.8V57.8z M117.5,57.8h11v-6.2h-11V57.8z M108.3,57.2l-1.1-0.8l-1.1,0.8l0.4-1.3l-1.1-0.8h1.4l0.4-1.3l0.4,1.3h1.4
	l-1.1,0.8L108.3,57.2z M98.4,56h1.4l0.4-1.3l0.4,1.3h1.4l-1.1,0.8l0.3,1h14.7v-6.2H114l0.3,1h1.4l-1.1,0.8l0.4,1.3l-1.1-0.8
	l-1.1,0.8l0.4-1.3l-1.1-0.8h1.4l0.3-1H86.6l0.3,1h1.4l-1.1,0.8l0.4,1.3l-1.1-0.8l-1.1,0.8l0.4-1.3l-1.1-0.8h1.4l0.3-1h-1.8v6.2h14.6
	l0.3-1L98.4,56z M91.3,55.1h1.4l0.4-1.3l0.4,1.3h1.4l-1.1,0.8l0.4,1.3l-1.1-0.8L92,57.2l0.4-1.3L91.3,55.1z M100.2,57.3l-0.6,0.5
	h1.3L100.2,57.3z M125.2,44.6l-1.1-0.8l-1.1,0.8l0.4-1.3l-1.1-0.8h1.4l0.4-1.3l0.4,1.3l1.4,0l-1.1,0.8L125.2,44.6z M121.2,49.9
	l-1.1-0.8l-1.1,0.8l0.4-1.3l-1.1-0.8h1.4l0.4-1.3l0.4,1.3h1.4l-1.1,0.8L121.2,49.9L121.2,49.9z M128.5,35.9l-1,0.7l0.4,1.3l-1.1-0.8
	l-1.1,0.8l0.4-1.3l-1.1-0.8h1.4l0.4-1.3l0.4,1.3L128.5,35.9v-5.2l-1-0.7l-1.1,0.8l0.4-1.3l-1.1-0.8h1.4l0.4-1.3l0.4,1.3h0.5v-2.1
	h-11v23.3h1.4h2.2h7.4V35.9z M128.3,29.6l0.3,0.9v-1.1L128.3,29.6z"/>
<path id="logo-footer-type-path" fill-rule="evenodd" clip-rule="evenodd" fill="#232D4B" d="M9.9,90.8c-3-1.2-4.5-3.1-5.2-5.9
	C4.2,83,4,80,4,74.3V63.9c0-1.5-0.3-2.2-1.7-2.2H0.3C0,61.6,0,61.6,0,61.3v-1c0-0.3,0-0.4,0.4-0.4c0.4,0,2.6,0.1,6,0.1
	c3.4,0,5.5-0.1,6-0.1c0.4,0,0.4,0.1,0.4,0.3v1.1c0,0.2,0,0.3-0.4,0.3h-2.2c-1.3,0-2,0.8-2.1,1.8c0,0.4-0.1,3.5-0.1,5.7V72
	c0,2.3,0.2,7.9,0.2,9.3c0,2,0.4,4.1,1.4,5.6c1.6,2.4,4.4,3.2,7,3.2c2.5,0,5-0.8,6.6-2.4c1.7-1.8,2.3-4.5,2.3-7.7v-9.4
	c0-3.3-0.1-5.9-0.2-7c-0.1-1.1-0.8-1.9-2-1.9h-1.9c-0.3,0-0.3-0.1-0.3-0.4v-1.1c0-0.2,0-0.3,0.3-0.3c0.4,0,2.5,0.1,5.4,0.1
	c3,0,4.4-0.1,4.8-0.1s0.4,0.2,0.4,0.3v1c0,0.3,0,0.4-0.3,0.4h-1.8c-1.6,0-1.8,1.2-1.9,1.8C28,63.8,28,70.1,28,70.7
	c0,0.6-0.1,8.3-0.2,10c-0.3,3.6-1.2,6.3-3.7,8.4c-1.8,1.6-4.4,2.6-8.2,2.6C13.6,91.7,11.4,91.4,9.9,90.8z M63.1,76.1
	c0-0.3,0-6,0-6.5c0-1,0.5-1.2,1.8-1.2h0.8c0.2,0,0.3-0.1,0.3-0.3V67c0-0.1-0.1-0.2-0.3-0.2c-0.4,0-2.8,0.1-4.2,0.1
	c-2.2,0-5.2-0.1-5.5-0.1c-0.2,0-0.3,0.1-0.3,0.3v1.1c0,0.2,0,0.3,0.3,0.3h0.9c2,0,2.4,0.5,2.4,1c0,0.7,0.1,5.4,0.1,6.2v2.1
	c0,1.6,0,7.7-0.1,8.1c-0.1,0.9-0.9,0.9-2,0.9h-1c-0.2,0-0.3,0.1-0.3,0.3v1c0,0.2,0.1,0.4,0.3,0.4c0.3,0,3-0.1,4.7-0.1
	c2.1,0,4.6,0.1,5,0.1c0.2,0,0.3-0.1,0.3-0.3V87c0-0.1,0-0.2-0.3-0.2h-0.7c-1.4,0-1.9-0.7-2-1.8c0-0.7,0-6.2,0-6.5V76.1z M111.3,74.5
	V70c0-1-0.5-1.5-1.8-1.5H109c-0.1,0-0.2-0.1-0.2-0.3V67c0-0.1,0.1-0.2,0.3-0.2c0.2,0,3.2,0.1,4,0.1c0.6,0,4.7-0.1,5.3-0.1
	c2.9,0,5,0.8,6.2,1.9c1,1,1.7,2.4,1.7,3.5c0,3.3-1.9,5.2-5.6,6.5v0.1c1.1,0.2,2,1.7,4,4.5c0.7,1,1.8,2.4,2.7,3
	c0.7,0.5,1.3,0.5,2.1,0.5c0.2,0,0.2,0.1,0.2,0.4v1c0,0.2-0.1,0.3-0.3,0.3c-0.1,0-0.5,0-1-0.1c-0.4,0-1,0-1.5,0c-1.1,0-2.2,0-3,0.1
	c-0.9-0.7-3-4.5-3.4-5.2c-1.7-2.9-2.4-4-4.4-4c-0.5,0-0.9,0-1.2,0.1v1.1v5.1c0.1,0.7,0.4,1.2,1.3,1.2h1.2c0.2,0,0.3,0.1,0.3,0.2v1.1
	c0,0.2-0.1,0.3-0.4,0.3c-0.3,0-2.9-0.1-4.5-0.1c-1.2,0-3.6,0.1-3.9,0.1c-0.2,0-0.3-0.1-0.3-0.4V87c0-0.1,0.1-0.2,0.3-0.2h0.6
	c1.1,0,1.7-0.2,1.7-1.2c0-2.3,0-5.1,0-8V74.5z M114.9,77.7c0.3,0,0.8,0.1,1.4,0.1c5.3,0,6.1-3.7,6.1-4.9c0-1.4-0.7-2.7-1.6-3.3
	c-1.3-0.8-2.6-1.2-4.5-1.2c-0.7,0-1.4,0.2-1.4,1V77.7z M137.8,88.9c4.3,0,6.6-3,6.6-6.6c0-2.4-0.6-3.6-1.5-4.6
	c-1.2-1.2-2.9-1.8-5.1-2.6c-0.9-0.3-2.6-1-3.3-1.9c-0.5-0.6-0.8-1.6-0.8-2.3c0-0.9,0.8-2.9,3.4-2.9c1.4,0,2.4,0.5,3.1,1.3
	c1,1.1,1.4,2.8,1.7,3.4c0,0.1,0.1,0.2,0.3,0.2l0.9-0.2c0.1,0,0.2-0.1,0.2-0.3c0-0.7-0.5-3.8-0.5-5.3c0-0.2,0-0.4-0.4-0.4
	c-0.4,0-0.5,0-0.6,0.1l-0.2,0.3c-0.1,0.2-0.3,0.2-0.8-0.1c-0.6-0.3-1.6-0.6-3.4-0.6c-1.7,0-3.2,0.4-4.5,1.4c-1,0.9-2,2.4-2,4
	c0,2.3,0.6,3.9,1.7,4.9c1.4,1.3,3.7,2.1,4.7,2.5c2.5,1,4.4,2.1,4.4,4.9c0,2-2.3,3.2-3.8,3.2c-1.8,0-3.3-1-4-2.4
	c-0.9-1.6-0.9-2.6-0.9-3.2c0-0.2-0.2-0.3-0.4-0.3l-0.9-0.1c-0.2,0-0.3,0.1-0.3,0.3c0,0.8-0.4,4.6-0.5,5.9c0,0.2,0.1,0.4,0.4,0.5
	c0.4,0.1,0.6,0,0.7-0.2l0.1-0.4c0.1-0.4,0.4-0.3,0.7-0.1C133.7,88.1,135.4,88.9,137.8,88.9z M152.4,76.1c0-0.3,0-6,0-6.5
	c0-1,0.5-1.2,1.8-1.2h0.8c0.2,0,0.3-0.1,0.3-0.3V67c0-0.1-0.1-0.2-0.3-0.2c-0.4,0-2.8,0.1-4.2,0.1c-2.2,0-5.2-0.1-5.5-0.1
	c-0.2,0-0.3,0.1-0.3,0.3v1.1c0,0.2,0,0.3,0.3,0.3h0.9c2,0,2.4,0.5,2.4,1c0,0.7,0.1,5.4,0.1,6.2v2.1c0,1.6,0,7.7-0.1,8.1
	c-0.1,0.9-0.9,0.9-2,0.9h-1c-0.2,0-0.3,0.1-0.3,0.3v1c0,0.2,0.1,0.4,0.3,0.4c0.3,0,3-0.1,4.7-0.1c2.1,0,4.6,0.1,5,0.1
	c0.2,0,0.3-0.1,0.3-0.3V87c0-0.1,0-0.2-0.3-0.2h-0.7c-1.4,0-1.9-0.7-2-1.8c0-0.7,0-6.2,0-6.5V76.1z M21.9,99.7
	c0-3.8,2.9-8.9,6.9-8.9c2,0,3.2,1.5,3.2,3.5c0,3.3-2.6,9.3-7,9.3C23.3,103.6,21.9,102,21.9,99.7z M30.7,93.8c0-0.9-0.5-1.7-1.5-1.7
	c-1.3,0-2.9,1.1-4.4,3.6c-1,1.6-1.7,3.5-1.7,4.9c0,1,0.7,1.5,1.4,1.5C27.6,102.1,30.7,95.8,30.7,93.8z M74.5,104.3c0-0.3,0-6,0-6.5
	c0-1,0.5-1.2,1.8-1.2h0.8c0.2,0,0.3-0.1,0.3-0.3v-1.1c0-0.1-0.1-0.2-0.3-0.2c-0.4,0-2.8,0.1-4.2,0.1c-2.2,0-5.2-0.1-5.5-0.1
	c-0.2,0-0.3,0.1-0.3,0.3v1.1c0,0.2,0,0.3,0.3,0.3h0.9c2,0,2.4,0.5,2.4,1c0,0.7,0.1,5.4,0.1,6.2v2.1c0,1.6,0,7.7-0.1,8.1
	c-0.1,0.9-0.9,0.9-2,0.9h-1c-0.2,0-0.3,0.1-0.3,0.3v1c0,0.2,0.1,0.4,0.3,0.4c0.3,0,3-0.1,4.7-0.1c2.1,0,4.6,0.1,5,0.1
	c0.2,0,0.3-0.1,0.3-0.3v-1.1c0-0.1,0-0.2-0.3-0.2h-0.7c-1.4,0-1.9-0.7-2-1.8c0-0.7,0-6.2,0-6.5V104.3z M81.4,102.7v-4.6
	c0-1-0.5-1.5-1.8-1.5h-0.5c-0.1,0-0.2-0.1-0.2-0.3v-1.1c0-0.1,0.1-0.2,0.3-0.2c0.2,0,3.2,0.1,4,0.1c0.6,0,4.7-0.1,5.3-0.1
	c2.9,0,5,0.8,6.2,1.9c1,1,1.7,2.4,1.7,3.5c0,3.3-1.9,5.2-5.6,6.5v0.1c1.1,0.2,2,1.7,4,4.5c0.7,1,1.8,2.4,2.7,3
	c0.7,0.5,1.3,0.5,2.1,0.5c0.2,0,0.2,0.1,0.2,0.4v1c0,0.2-0.1,0.3-0.3,0.3c-0.1,0-0.5,0-1-0.1c-0.4,0-1,0-1.5,0c-1.1,0-2.2,0-3,0.1
	c-0.9-0.7-3-4.5-3.4-5.2c-1.7-2.9-2.4-4-4.4-4c-0.5,0-0.9,0-1.2,0.1v1.1v5.1c0.1,0.7,0.4,1.2,1.3,1.2h1.2c0.2,0,0.3,0.1,0.3,0.2v1.1
	c0,0.2-0.1,0.3-0.4,0.3c-0.3,0-2.9-0.1-4.5-0.1c-1.2,0-3.6,0.1-3.9,0.1c-0.2,0-0.3-0.1-0.3-0.4v-1.1c0-0.1,0.1-0.2,0.3-0.2h0.6
	c1.1,0,1.7-0.2,1.7-1.2c0-2.3,0-5.1,0-8V102.7z M85.3,105.9c0.3,0,0.8,0.1,1.4,0.1c5.3,0,6.1-3.7,6.1-4.9c0-1.4-0.7-2.7-1.6-3.3
	c-1.3-0.8-2.6-1.2-4.5-1.2c-0.7,0-1.4,0.2-1.4,1V105.9z M117.7,110c0-0.8,0.9-1,1.4-1h0.8c0.1,0,0.2-0.1,0.2-0.3v-1.1
	c0-0.1-0.1-0.2-0.3-0.2s-2.3,0.1-4.1,0.1c-2.6,0-4.9-0.1-5.2-0.1c-0.2,0-0.2,0.1-0.2,0.2v1.1c0,0.1,0,0.2,0.2,0.2h1.1
	c1.2,0,2.3,0.3,2.3,1.4v1.8c0,1-0.1,1.6-0.7,2c-0.8,0.6-2.3,1-3.9,1c-1.3,0-3.2-0.7-4.6-2.1c-1.9-2-2.9-4.7-2.9-8.3
	c0-2.1,1-4.7,2.5-6.2c1.8-1.9,3.6-2.4,5.1-2.4c2.2,0,3.5,1,4.8,2.3c1.1,1.1,2,2.6,2.3,3.4c0.1,0.4,0.2,0.4,0.4,0.4l0.9-0.3
	c0.1,0,0.2-0.1,0.2-0.4c-0.1-0.9-0.7-5.3-0.7-5.5c0-0.3-0.1-0.5-0.5-0.5c-0.4,0-0.5,0.1-0.6,0.3l-0.2,0.4c-0.1,0.1-0.3,0.1-0.7-0.2
	c-0.9-0.7-3.1-1.5-5.4-1.5c-3.4,0-6.3,1-8.5,2.9c-2.3,2-3.5,4.9-3.5,7.8c0,3.7,1,6.3,2.9,8.4c2.2,2.5,6,3.5,8.5,3.5
	c3,0,5.6-0.7,8.1-1.9c0.3-0.1,0.5-0.3,0.5-0.5c0-0.2-0.1-0.5-0.1-1V110z M126.4,104.3c0-0.3,0-6,0-6.5c0-1,0.5-1.2,1.8-1.2h0.8
	c0.2,0,0.3-0.1,0.3-0.3v-1.1c0-0.1-0.1-0.2-0.3-0.2c-0.4,0-2.8,0.1-4.2,0.1c-2.2,0-5.2-0.1-5.5-0.1c-0.2,0-0.3,0.1-0.3,0.3v1.1
	c0,0.2,0,0.3,0.3,0.3h0.9c2,0,2.4,0.5,2.4,1c0,0.7,0.1,5.4,0.1,6.2v2.1c0,1.6,0,7.7-0.1,8.1c-0.1,0.9-0.9,0.9-2,0.9h-1
	c-0.2,0-0.3,0.1-0.3,0.3v1c0,0.2,0.1,0.4,0.3,0.4c0.3,0,3-0.1,4.7-0.1c2.1,0,4.6,0.1,5,0.1c0.2,0,0.3-0.1,0.3-0.3v-1.1
	c0-0.1,0-0.2-0.3-0.2h-0.7c-1.4,0-2-0.7-2-1.8c0-0.7,0-6.2,0-6.5V104.3z M152.1,104.8c0-2-0.1-4.9,0.1-7.1c0.1-0.7,0.3-1,1.5-1h0.5
	c0.2,0,0.3-0.1,0.3-0.3v-1c0-0.3-0.1-0.4-0.3-0.4c-0.3,0-2,0.1-3,0.1c-1.5,0-3.6-0.1-3.9-0.1c-0.2,0-0.3,0.1-0.3,0.2v1.1
	c0,0.2,0.1,0.3,0.3,0.3h0.8c0.8,0,1.5,0.3,1.8,0.9c0.2,0.6,0.4,3.3,0.4,4.5c0.1,1.5,0.1,3,0.1,5.7v3.1h-0.2c-0.6-0.6-5-6.2-5.8-7.2
	c-1-1.2-6.5-8.1-6.6-8.3c-0.2-0.3-0.5-0.4-1.1-0.4c-0.6,0-1.6,0.1-2.3,0.1c-0.5,0-1.3,0-1.9-0.1c-0.6,0-1.1,0-1.2,0
	c-0.2,0-0.3,0.1-0.3,0.3v1.1c0,0.2,0.1,0.3,0.3,0.3h0.4c1.3,0,2.5,0.8,2.5,2.5v5c0,5.4-0.1,8.7-0.1,9.3c-0.1,1.1-0.9,1.4-1.4,1.4
	h-1.1c-0.1,0-0.2,0-0.2,0.1v1.2c0,0.2,0,0.3,0.1,0.3c0.4,0,2.5-0.1,3.2-0.1c1.4,0,3.3,0.1,3.6,0.1c0.2,0,0.2-0.1,0.2-0.3v-1.1
	c0-0.2,0-0.3-0.2-0.3h-1c-0.5,0-1-0.5-1.1-1.6c-0.1-0.4-0.3-5.2-0.3-8v-6.5h0.1c0.8,0.9,4.6,6,5.8,7.3c0.5,0.6,2.6,3,4.8,5.7
	c1.9,2.3,3.6,4.3,3.9,4.6c0.2,0.1,0.7,0.5,1.1,0.5c0.6,0,0.7-0.5,0.7-0.9V104.8z M157.6,66.9c0-0.1,0-0.1,0.1-0.2c0.1,0,0,0,0.2,0
	c0.7,0.1,3.4,0.3,8.7,0.3h1.9c1.6,0,3.2-0.1,5-0.1c0.9,0,6.5,0,7.6,0c1,0,4.3-0.1,4.6-0.1c0.2,0,0.3,0.1,0.3,0.3v1
	c0,0.2,0,0.3-0.3,0.3H185c-0.9,0-0.9,0.5-0.7,0.8c0.3,0.4,4.2,6.8,5,7.9c0.7-1.2,4.7-6.9,4.9-7.3c0.4-0.8,0.4-1.4-0.6-1.4h-0.8
	c-0.2,0-0.3-0.1-0.3-0.3v-1c0-0.2,0.1-0.3,0.3-0.3c0.3,0,2.7,0.1,4.1,0.1c0.9,0,2.5-0.1,2.8-0.1c0.2,0,0.3,0.1,0.3,0.4v1
	c0,0.2-0.1,0.3-0.3,0.3h-0.5c-0.8,0-1.3,0.1-1.7,0.4c-0.7,0.4-6.2,8.1-7.3,9.8v4c0,1.2,0,2.5,0.1,3c0.1,1,0.9,1,1.7,1h0.6
	c0.2,0,0.3,0.1,0.3,0.2v1.1c0,0.2-0.1,0.3-0.4,0.3c-0.3,0-2.9-0.1-4.5-0.1c-1,0-3.8,0.1-4.1,0.1c-0.2,0-0.3-0.1-0.3-0.4v-1
	c0-0.1,0.1-0.3,0.3-0.3h0.7c1.5,0,1.8-0.3,1.9-1c0-0.4,0-2.1,0-4.9v-1.7c-0.4-0.9-6.2-9.4-7-10.1c-0.4-0.4-1.1-0.5-1.5-0.6
	c0.3,1.3,0.7,3,0.8,3.8c0,0.2,0,0.3-0.2,0.4l-0.8,0.2c-0.3,0.1-0.4,0-0.5-0.2c-0.6-1.2-1.4-2.8-2.4-3.7c-1.2-0.4-4.7-0.5-5.5-0.5v8
	c0,5,0,8.6,0,8.9c0.1,0.8,0.3,1.2,1.1,1.2h1.8c0.2,0,0.3,0.1,0.3,0.4v1c0,0.1-0.1,0.3-0.3,0.3c-0.3,0-3.3-0.1-4.9-0.1
	c-1.3,0-4.4,0.1-4.8,0.1c-0.3,0-0.4-0.1-0.4-0.4v-1c0-0.2,0.1-0.3,0.3-0.3h1.9c0.7,0,1-0.4,1.1-0.8c0.1-1.8,0.1-4.3,0.1-7.2V68.6
	c-0.9,0-3.6,0-5.3,0.4c-1.2,0.9-2.2,2.4-2.8,3.7c-0.1,0.2-0.2,0.3-0.4,0.2l-0.9-0.3c-0.2-0.1-0.2-0.3-0.2-0.5
	C156.4,71.2,157.2,68.3,157.6,66.9z M37.4,86.8c0.5-0.9,1-1.7,1.7-2.4c0.8-1,2.5-2,4.5-2c0.9,0,1.5,0.3,2,0.6c-2-2.3-3.7-4.4-4.2-5
	c-1.1-1.3-5-6.5-5.8-7.3h-0.1v6.5c0,2.9,0.2,7.6,0.3,8c0.1,1.1,0.7,1.6,1.1,1.6H37.4z M36.6,88.4c-0.7,0-1.6-0.1-2.3-0.1
	c-0.7,0-2.8,0.1-3.2,0.1c-0.1,0-0.1-0.1-0.1-0.3v-1.2c0-0.1,0-0.1,0.2-0.1h1.1c0.5,0,1.2-0.3,1.4-1.4c0-0.6,0.1-3.9,0.1-9.3v-5
	c0-1.7-1.2-2.5-2.5-2.5h-0.4c-0.2,0-0.3-0.1-0.3-0.3v-1.1c0-0.1,0.1-0.3,0.3-0.3c0.1,0,0.6,0,1.2,0c0.6,0,1.4,0.1,1.9,0.1
	c0.8,0,1.8-0.1,2.3-0.1c0.7,0,1,0.1,1.1,0.4c0.1,0.2,5.6,7.1,6.6,8.3c0.9,1,5.3,6.6,5.8,7.2h0.2v-3.1c0-2.7,0-4.2-0.1-5.7
	c0-1.1-0.1-3.9-0.4-4.5c-0.2-0.6-1-0.9-1.8-0.9H47c-0.2,0-0.3-0.1-0.3-0.3V67c0-0.1,0.1-0.2,0.3-0.2c0.3,0,2.4,0.1,3.9,0.1
	c1,0,2.7-0.1,3-0.1c0.2,0,0.3,0.1,0.3,0.4v1c0,0.2-0.1,0.3-0.3,0.3h-0.5c-1.2,0-1.4,0.3-1.5,1c-0.2,2.2-0.1,5.2-0.1,7.1v11.1
	c0,0.4-0.1,0.9-0.7,0.9c-0.4,0-0.9-0.3-1.1-0.5c-0.3-0.3-1.9-2.2-3.8-4.5c0.1,0.1,0.1,0.3,0.1,0.4c0,0.9-0.6,1.4-1.2,1.4
	c-1,0-1.2-0.5-1.3-1.2c0-0.3-0.3-0.9-1.2-0.9c-2.8,0-3.4,4-4.4,7.3c0,0,4.2,0.1,7.6,0.1c3.7,0,5.6-0.1,6-0.1c0.4,0,0.4,0.1,0.4,0.3
	v1c0,0.2,0,0.4-0.4,0.4h-2.1c-1.2,0-1.8,0.4-1.8,1.1c0,0.4,0,0.9,0.2,1.5c0.3,1.6,1.9,6.8,2.7,9.2c0.5,1.7,3.1,9.2,4.1,11.9
	c1-2.1,4.4-11.1,4.8-12.1c0.4-1.2,2.1-6.2,2.8-8.1c0.4-1.1,0.6-1.9,0.6-2.5c0-0.5-0.3-1-1.4-1h-1.1c-0.2,0-0.2-0.1-0.2-0.4v-1
	c0-0.2,0-0.3,0.3-0.3c0.4,0,2.4,0.1,5.2,0.1c3.2,0,4.3-0.1,4.7-0.1c0.3,0,0.3,0.1,0.3,0.3v1.1c0,0.2,0,0.3-0.3,0.3h-1.2
	c-1.4,0-2.3,0.7-3.1,1.7c-1.1,1.4-4.6,10.4-5.4,12.2c-0.5,1.4-6.2,15.4-6.4,15.8c-0.2,0.3-0.4,0.6-0.6,0.6c-0.4,0-0.5-0.4-0.7-1
	c-1.4-4-4.9-14-5.5-15.6l-0.4-1.5c-1-3.1-3.1-9.5-3.7-10.8c-0.4-1-0.9-1.4-1.8-1.4l-4.1,0c-0.8,2.4-2.2,7.6-3.7,11.4
	c-1.8,4.7-4,8-7.2,8c-1.2,0-2.2-0.8-2.2-1.8c0-0.7,0.5-1.3,1.3-1.3c0.9,0,1.3,0.8,1.4,1.4c0.1,0.3,0.3,0.5,0.5,0.5
	c1.4,0,3.1-2.5,4.7-8.1l3.1-10.2h-2.7c-0.2,0-0.2-0.1-0.2-0.4l0.1-0.5c0.1-0.2,0.3-0.7,0.5-0.7h2.6C36,90,36.3,89.2,36.6,88.4z
	 M176.6,98.6c0.1-0.4,0.2-0.5,0.4-0.5c0.1,0,0.2,0.2,0.3,0.5c0.1,0.4,2.3,7.5,2.5,8.2h-6.5C173.5,106.3,176.4,99,176.6,98.6z
	 M163.5,97.9c0-1,0.5-1.2,1.8-1.2h0.8c0.2,0,0.3-0.1,0.3-0.3v-1.1c0-0.1-0.1-0.2-0.3-0.2c-0.4,0-2.8,0.1-4.2,0.1
	c-2.2,0-5.2-0.1-5.5-0.1c-0.2,0-0.3,0.1-0.3,0.3v1.1c0,0.2,0,0.3,0.3,0.3h0.9c2,0,2.4,0.5,2.4,1c0,0.7,0.1,5.4,0.1,6.2v2.1
	c0,1.6,0,7.7-0.1,8.1c-0.1,0.9-0.9,0.9-2,0.9h-1c-0.2,0-0.3,0.1-0.3,0.3v1c0,0.2,0.1,0.4,0.3,0.4c0.3,0,3-0.1,4.7-0.1h7.9
	c0.8,0,3.3,0.1,3.7,0.1c0.2,0,0.3-0.1,0.3-0.3v-1c0-0.2,0-0.3-0.3-0.3h-1.2c-1,0-1.1-0.6-0.9-1.6c0.2-0.6,1.7-4.5,1.9-5.1h7.7
	c0.4,1.1,1.7,4.9,1.9,5.8c0,0.4-0.2,0.8-0.8,0.8h-0.8c-0.2,0-0.2,0.1-0.2,0.3v1c0,0.2,0,0.4,0.4,0.4c0.6,0,3.4-0.1,4.3-0.1
	c1.1,0,3.6,0.1,4.2,0.1c0.3,0,0.3-0.3,0.3-0.4v-1c0-0.1,0-0.3-0.2-0.3h-0.9c-0.8,0-1.6-0.4-2.2-1.3c-0.3-0.5-2.4-6.1-3.1-8.5
	c-0.6-1.9-3-8.7-3.7-10.6c-0.1-0.3-0.2-0.5-0.5-0.5c-0.3,0-0.5,0.1-0.6,0.3c-0.4,0.4-1.8,1.2-2.7,1.4c-0.4,0.1-0.5,0.2-0.5,0.3
	c0,0.1,0.1,0.4,0.2,0.5c0.3,0.1,0,0.7,0,1c-0.3,0.8-3.1,7.3-3.4,7.9c-1.1,2.4-3.6,8.1-3.9,8.5c-0.4,0.5-1.1,1-2,1h-0.5
	c-1.4,0-1.9-0.7-2-1.8c0-0.7,0-6.2,0-6.5v-2.4C163.4,104,163.5,98.3,163.5,97.9z M76.2,66.8c-0.3,0-3.2,0.1-4.3,0.1
	c-1.2,0-3.9-0.1-4.1-0.1c-0.2,0-0.3,0.1-0.3,0.2v1.2c0,0.1,0,0.3,0.2,0.3h0.5c0.6,0,1,0.4,1.4,0.9c0.3,0.5,1.8,4.8,2.6,7l0.3,1
	c0.4,1,2.9,7.9,3.9,10.7c0.1,0.4,0.4,0.7,0.8,0.7c0.4,0,0.6-0.1,0.8-0.4c0.4-0.6,4.3-9.9,4.7-10.9c0.5-1.2,3-7.5,3.9-8.4
	c0.4-0.4,1.1-0.7,2-0.7h0.7h0.1h0.4c1.9,0,2.2,0.2,2.3,1.2c0,0.5,0.1,3.6,0.1,6.1v2.9v7.2c0,0.7-0.1,0.9-2.4,0.9h-0.4
	c-0.2,0-0.3,0.1-0.3,0.3v1.1c0,0.2,0,0.3,0.3,0.3c0.6,0,3.2-0.1,4-0.1c10,0,12.5,0.1,12.8,0.1c0.2,0,0.4-0.2,0.5-0.5l1.7-5
	c0-0.1,0-0.3-0.1-0.3l-0.8-0.4c-0.1-0.1-0.4,0-0.6,0.3c-0.5,0.8-2.1,2.9-2.5,3.2c-1.6,1.3-2.9,1.3-5,1.3c-2,0-3.4-0.1-3.4-2.4
	c0-0.6-0.1-3.4-0.1-5V78c0.5,0,2.1,0,3.6,0.3c1.2,0.3,1.5,1,1.8,2.2c0,0.2,0.1,0.2,0.3,0.2l1-0.1c0.1,0,0.2,0,0.2-0.2
	c0-0.6-0.2-2.1-0.2-3.1c0-0.4,0-2.9,0.1-3.4c0-0.2-0.1-0.3-0.3-0.3l-1,0c-0.2,0-0.2,0-0.2,0.2c0,1.5-0.5,2.1-1.7,2.5
	c-0.4,0.1-3.2,0.2-3.5,0.2v-8.1l5,0.1c0.5,0,1.2,0.2,1.8,0.7c0.8,0.8,3.1,3.4,3.2,3.6c0.1,0.2,0.3,0.2,0.4,0.2l0.8-0.3
	c0.1,0,0.1-0.1,0-0.3c-0.1-0.3-1.4-4.4-1.5-4.9c-0.1-0.6-0.2-0.7-0.3-0.7c-0.2,0-0.8,0.1-1.3,0.1l-10.7,0h-7.3
	c-1.1,0-3.6-0.1-3.9-0.1c-0.2,0-0.3,0.1-0.3,0.3v1.1c0,0.2,0.1,0.3,0.3,0.3h0.5c0.8,0,1,0.2,1,0.5c0,0.5-0.6,1.8-2.4,7
	c-0.2,0.7-2.6,6.6-2.9,7.6h-0.1c-0.3-0.8-2-6.3-2.4-7.5c-1.3-4-2.1-5.8-2.1-6.9c0-0.6,0.7-0.7,1.3-0.7h1.1c0.2,0,0.3-0.1,0.3-0.3
	v-1.1C76.6,66.9,76.5,66.8,76.2,66.8z"/>
</svg>
